<svg xmlns="http://www.w3.org/2000/svg" viewBox="0 0 137.3 137.3">
  <defs>
    <!-- Glowing Pulse Animation -->
    <filter id="glow">
      <!--Blur effect-->
      <feGaussianBlur stdDeviation="7" result="blur1">
        <animate attributeType="XML"
                         attributeName="stdDeviation"
                         from="3" to="7"
                         dur="1s"
                         repeatCount="indefinite"
                         values="3; 7; 7; 3;"
                         keyTimes="0; 0.45; 0.75; 1"
                         keySplines=".42 0 1 1;
                                     0 0 .59 1;
                                     .42 0 1 1;
                                     0 0 .59 1;
                                     .42 0 1 1;
                                     0 0 .59 1;
                                     .42 0 1 1;
                                     0 0 .59 1;"/>
      </feGaussianBlur>
      <!--Composition of inputs-->
      <feComposite in="SourceGraphic" in2="spec1" operator="arithmetic" k1="0" k2="1" k3="1" k4="0" />
    </filter>
  </defs>

  <defs>
    <!-- Light travelling across the icon -->
    <filter id="light">
      <!--Blur effect-->
      <feGaussianBlur stdDeviation="2" result="blur1" />
      <!--Lighting effect-->
      <feSpecularLighting result="spec1" in="blur1" specularExponent="100" lighting-color="rgba(255, 255, 255, 0.1)">
        <!--Light source effect-->
        <fePointLight x="40" y="15" z="50">
          <animate attributeType="XML"
             attributeName="x"
             from="20" to="200"
             dur="4s"
             repeatCount="indefinite"
             values="-10; 100; 170; 200; -10;"
             keyTimes="0; 0.15; 0.45; 0.75; 1"
             keySplines=".42 0 1 1;
                         0 0 .59 1;
                         .42 0 1 1;
                         0 0 .59 1;
                         .42 0 1 1;
                         0 0 .59 1;
                         .42 0 1 1;
                         0 0 .59 1;" />
        </fePointLight>
      </feSpecularLighting>
      <!--Composition of inputs-->
      <feComposite in="SourceGraphic" in2="spec1" operator="arithmetic" k1="0" k2="1" k3="1" k4="0" />
    </filter>
  </defs>

  <defs>
    <filter id="virtual_light" filterUnits="objectBoundingBox"
     x="-0.1" y="-0.1">
     <feGaussianBlur in="SourceAlpha" stdDeviation="2" result="alpha_blur"/>

     <!-- virtual shadow effect -->
     <feOffset in="alpha_blur" dx="4" dy="4" result="offset_alpha_blur"/>

     <!-- vitual lighting effect -->
     <feSpecularLighting in="alpha_blur" surfaceScale="5" specularConstant="1"
       specularExponent="20" lighting-color="#FFFFFF" result="spec_light">
       <fePointLight x="-5000" y="-10000" z="10000"/>
     </feSpecularLighting>
     <feComposite in="spec_light" in2="SourceAlpha" operator="in"
       result="spec_light"/>
     <feComposite in="SourceGraphic" in2="spec_light"
       operator="out" result="spec_light_fill"/>

     <!-- combine effects -->
     <feMerge>
       <feMergeNode in="offset_alpha_blur"/>
       <feMergeNode in="spec_light_fill"/>
     </feMerge>
   </filter>
  </defs>

  <defs>
    <filter id="glow-3" x="0" y="0">
      <feGaussianBlur in="SourceGraphic" stdDeviation="2" result="blur1"/>
    </filter>

    <!-- Duplicate and Offset -->
    <filter id = "offset" width = "105%" height = "105%">
       <feOffset result = "offOut" in = "SourceGraphic" dx = "5" dy = "5">
          <feGaussianBlur in="offOut" stdDeviation="20" />
       </feOffset>
       <feBlend in="SourceGraphic" in2="offOut" mode = "normal"/>
       </feBlend>
           <!-- <feGaussianBlur in="SourceGraphic" in2="blur" stdDeviation="2" /> -->
    </filter>

    <filter id="drop-glow" width="1.5" height="1.5" x="-.25" y="-.25">
      <feGaussianBlur id="feGaussianBlur5384" in="SourceAlpha" stdDeviation="15.000000" result="blur"/>
      <feColorMatrix id="feColorMatrix5386" result="bluralpha" type="matrix" values="-1 0 0 0 1 0 -1 0 0 1 0 0 -1 0 1 0 0 0 0.800000 0 "/>
      <feOffset id="feOffset5388" in="bluralpha" dx="0.000000" dy="0.000000" result="offsetBlur"/>
      <feMerge id="feMerge5390">
          <feMergeNode id="feMergeNode5392" in="offsetBlur"/>
          <feMergeNode id="feMergeNode5394" in="SourceGraphic"/>
      </feMerge>
    </filter>


    <filter id="lightMe1">
      <feDiffuseLighting in="SourceGraphic" result="light" lighting-color="white">
        <fePointLight x="50" y="100" z="20" />
      </feDiffuseLighting>
      <feComposite in="SourceGraphic" in2="light" operator="arithmetic" k1="1" k2="0" k3="0" k4="0"/>

    <!--   <feGaussianBlur in = "SourceAlpha" stdDeviation = "8" result = "blur1"/>
       <feDiffuseLighting result = "diffOut" in = "SourceGraphic" diffuseConstant = "20" lighting-color = "white">
           <feSpotLight x = "800" y = "800" z = "400" pointsAtX = "0" pointsAtY = "0" pointsAtZ = "0" limitingConeAngle = "20"/>
       </feDiffuseLighting>
       <feComposite in = "SourceGraphic" in2 = "diffOut" operator = "arithmetic" k1 = "1" k2 = "0" k3 = "0" k4 = "0"/> -->
<!--
      <feDiffuseLighting result = "diffOut" in = "SourceGraphic" diffuseConstant = "1.2" lighting-color = "white">
        <fePointLight x = "400" y = "400" z = "150" pointsAtX = "0" pointsAtY = "0" pointsAtZ = "100"/>
      </feDiffuseLighting>
      <feComposite in = "SourceGraphic" in2 = "diffOut" operator = "arithmetic" k1 = "1" k2 = "0" k3 = "0" k4 = "0"/> -->
    </filter>

    </defs>
    <path d="M68.7 0C30.8 0 0 30.8 0 68.7c0 37.9 30.8 68.7 68.7 68.7 37.9 0 68.7-30.8 68.7-68.7C137.3 30.8 106.5 0 68.7 0zm0 131.3c-25.3 0-47.1-15.1-57-36.7 1.4-.5 6.5-1.9 7.5-1.9s5.2.7 6.6.6c1.4-.1 1.8-.1 2.7 0s4.3 1.1 5 1.5c.8.4 5 1.6 5.4 1.8.5.2 6.3.102 7.5.2 1.2.1 5.3-.7 6.7-.8 1.4-.1 5-.5 5.5-.8.5-.3 3.4-1.9 3.9-2.6.4-.7 2.1-1.9 2.6-2 .4-.1 1.2-1.6 1.8-2.3.2-.2.5-.5.9-.7.2 1.5.7 3.8 1.5 4.5.9.8 1.7.1 2 1.1.3 1-.4 2.2-1 3.5-.6 1.3-.7 4.1-.6 4.7.2.6 1.1 2.5 1.6 2.9s2 .8 2.6 1.5c.6.7 1.3 2.1 1.7 2.2.4.1 2 1.3 2.5 2 .4.7 3.2 2.2 3.7 2.5.5.2 4 .6 5.3.7 1.3.1 5.3.9 6.4.8 1.1-.1 6.7 0 7.2-.2.4-.2 4.5-1.3 5.2-1.7.7-.4 4-1.4 4.8-1.4.8-.1 1.3 0 2.6 0 .4 0 1.2 0 2-.1-11.6 12.7-28.2 20.7-46.6 20.7zM55.9 43.5c.4.3.5 1.2.8 2.4.3 1.2-.5 1-1.5 1.4-1.1.4-2.4.1-3.3.4-.9.3-.9.8-1.4 2-.5 1.2.1 1.6 0 2.4-.1.8.3 4.6.5 5.2.2.6.2-3 .2-3.7.1-.7.2-1.3.3-2 .1-.7-.2-1.3.3-2.2.6-.8 1.5-.4 2.5-.6.9-.2 2.6 1.1 2.9 1.4.3.3.8 1.5.8 1.5l-.6-.3c.3.3.5.7.7 1 .3.5.3 1.1.1 1.7.1.2.2.5.4 1 .6 1.3.1.6-.2 2.1-.3 1.5 0 2.1-.7 2.6-.613.438-3.525-.504-4.51-.88.504.25-3.066-.777-3.79-1.32-.8-.6-.7-2.5-1-3.4-.3-.8-.3-.9-.7-2.2-.2-.9-.3-1.7-.7-2.5-.4-.9-.6-.9-1.3-2.1-.7-1.2-.9-1.4-.9-3.2-.1-1.8.7-1.7 1.3-2.9.6-1.2 2.8-2.1 2.1-2.2-.7-.1-1 .4-2.1 1.4s.1 0-2 2.6-1.1-.4-1.8-.4c-.7.1-.5-1-.9-2.2s-.5-1.1-.5-2-.5-1.2-.9-1.5c-.3-.3-.1 1 .1 2s-.5 1.4.1 2.4c.7 1 .6 2.3.6 2.3s-.2.5-1.1.1c-.8-.4-3.9-.6-4.3-.6s-.5-1.5-1.5-1.8c-1-.3-.6.5-.5 1.4.2 1 1.3.8 2 1.2.6.4 1 .5 1.7.7.8.2.8.4 1.5 1.2.7.8.9.8 1.4 1.7.4.9-1 .3-1.6 0-.6-.3-1.1-.5-2.6-1.3s-.6.1.4 1.2 1 1.1 2.2 1.9c1.2.8 1.2.8 1.6 1.6.2.5-.2.4-.7.5 0 .2.1.3.1.5 0 .7-.3 1.2-.8 1.6.1.9-.4 1.8-1.4 2.1 0 .1.1.2.1.4.2.9-.2.6-1.2.9s-2-1.2-2.5-2.1-.8-.2-.6.6c.2.9.4.7.2 1.1-.2.4-.8.5-.6.9.2.4.8 1.2 1.7 1.7.9.5.8 1.1 1.3 2 .5.8-.3 1-1 1.3-.7.3-1.6.3-2.5.4s-1.6.6-1.4.8c.2.3 1.6.8 2 1.4.4.6-1.5.3-3.1.7-1.5.3-2.3.2-4.3.4-2 .3-1.4 1.1-.6 1.4 1.1.4 1.8 1 2.8 1.2 1 .2 2.6.3 3 .8.4.6-1.6 1-2.8 1.4-1.1.4-1 .2-3.2.1s-2.5-.5-4-1.6c-1.1-.8-1.6-1.5-3-3.5-.9-1.2-1.1-2.6-1.5-4.1h.3l-.6-.8c-.3-1-.4-2-.5-3 .2-1 .4-2 .5-2.4 0-.1 0-.2.1-.3.7-.6 1.3-1.3 1.9-2 .7-.9 1.2-1.8 1.8-2.8.4-.6.7-1.2 1.1-1.8.9-1.4 2-2.7 3.1-3.9 1.3-1.5 2.7-3.1 3.8-5 .6-1.1 1.2-2.1 1.8-3.3.2-.5.4-1 .5-1.4 0-.1.1-.3.1-.4.3-.6.5-1 .6-1.1.1-.2 1.3-2 1.6-2.3l.1.1c.4-.3 1-.4 1.7-.4.4.2 1.2.2 1.9.3h.2c.6.1 1.2.2 1.7.3 2.1.1 4 .3 5.9.7 3.2.7 6.3 1.4 9.4 2.2l1.7.4c1.2.3 2.2.7 3.1 1.3.5.8-1 1.8-1.2 3.2-.2 1.4-1.7 1.6-2 2.4-.3 1.2.9 1.4 1.3 1.6zM93 90.8c-.7.7-1.6 1.1-2.8 1.6-1.2.6-2-.5-3.8-1-1.8-.6-2.4-.7-3.8-1.2s-1.3.4-2.4.9c-1.1.5-1.8 1.9-2.6 2.2-.8.3-1.2.1-2.2-.6-1-.7-.7-1.6-.8-3.1s.5-2.9.5-2.9c.9-.7 3.2-.7 3.9-.9.7-.1 5.5.4 7.2.5 1.7.1 5 0 7-.1s2.6-.3 3.5.7c.9 1 .3 1.1-.1 2.3-.4 1.2-1.3-.2-2.5-.2-1.1 0-.4 1.1-1.1 1.8zm.5 11.7c-.3 1-.6 1-2 1.5-1.3.5-1.8 1.1-2.5 1.4-.8.3-2.3.7-3.4.6-1-.1-6.8-2.2-7.3-2.7s-.6-.5-1.6-.8c-1-.3-.5-1.2-1-2.1s.6-1.6 1.3-2.2c0 0 5.2-.7 6.4-.7 1.2 0 4.9-.4 5.8-.6.8-.3 3.2.1 4 .8.9.7.3 1 .7 2.1.3 1-.1 1.7-.4 2.7zM80.8 74.4c-.3.1-.8-.6-.8-1.5s1-2.8 1-2.8v1.2c-.1.8 0 .9-.1 1.5s.2 1.5-.1 1.6zm-1.7-18.7c-.5.5-.7.9-1.3 1.8-.6.8-.3.6-.9.9-.6.3-.4.5-.7.8-.3.3.2.5.5.8.3.3.1.3.7 1.5s.8 1.9 1.3 3 .7 1.3.8 2.8c.1 1.4-.1 1.9-.4 2.1-.3.2-.7-.2-1.398-1.2-.6-1-1.5-2.2-2.4-3.2S74.1 64.6 73 64c-.5-.2-.8-.2-1.1 0 .4-.6 2-1.2 2.4-2.5.4-1.1.6-3 .7-4.4 1.1-.7.9-1.2 1.6-1.9.7-.8 2.5-1.1 3.1-1.1.6 0 1.6.3 1.6.3-.6.1-1.7.8-2.2 1.3zM72 73.3c.7.1 1.3.2 1.7.3.7.2 2.7.1 3.5.6.9.5 1.4.2 1.8.9.4.7.8 1.1.4 1.5-.4.5-.5.6-.7.9-.2.4-1.5-.6-2.5-.7s-1.6.1-2.8.6c-1.2.5-1.8 1.5-2.7.9-.1-.1-.3-.2-.4-.3-.6-1.2-1.1-2.2-.8-3.1.3-1 1.1-.3 2-1.1.2 0 .3-.2.5-.5zm-3.5-13.6c-.4-.2-.8-.6-1.4-.8-1.3-.5-1.9-.8-2.9-.6-1.1.1-2.4 1.1-2.6.7-.2-.4-.3-.5-.7-1s0-.8.4-1.6.9-.4 1.8-.9 2.9-.4 3.7-.6c.7-.2 2.8-.6 3.8-.1.4.5.6.5.7 1.9-.1.2-.2.5-.2.8s-.1.6-.3.9l-.3-.5c-.5.2-1.3.9-2 1.8zm1.6-14.2c-1.4-.4-1.5-1.3-2.6-.8-1.2.5-1.4 0-2.4 1S63.2 48 62.6 49c-.7 1.1-1.1 1.5-1.4 1.2-.3-.2-.5-.7-.4-2.2.1-1.5.4-1.7.9-2.9s.7-1.9 1.3-3.1.4-1.2.7-1.6c.3-.3.9-.5.6-.8-.3-.3-.1-.5-.7-.8-.6-.3-.3 0-.9-.9-.6-.9-.8-1.4-1.3-1.9-.3-.3-.9-.7-1.4-1 1-.2 2.3-.3 3.2-.1.3.1.5.3.7.5.7.8.5 1.4 1.8 2.1 1 .6 1.5 1.3 2.3 2l.1.7c.9-.2 3.2 3.1 3.7 4.7-.5.6-.5 1-1.7.6zm-9.8 8.6c0 .9-.5 1.6-.8 1.5s0-1-.1-1.7c-.1-.6 0-.7 0-1.5v-1.2c-.1 0 .8 2 .9 2.9zm1 13.4c.7.1 3.1.2 4 .9 0 0 .6 1.4.5 3-.1 1.6.1 2.5-.9 3.2s-1.5 1-2.3.7c-.8-.3-1.5-1.8-2.7-2.3-1.2-.5-1-1.4-2.5-.9s-2.1.7-4 1.3-2.7 1.6-4 1.1c-1.2-.6-2.2-1-2.9-1.698-.7-.702 0-1.802-1.2-1.802s-2.1 1.4-2.5.2c-.5-1.2-1.1-1.4-.1-2.4s1.5-.8 3.6-.7c2.3-.1 5.7-.1 7.5-.1 1.7-.1 6.8-.7 7.5-.5zm3.4 14.9c-.5.9 0 1.9-1.1 2.2s-1.2.3-1.7.9c-.5.6-6.5 2.7-7.6 2.8-1.1.1-2.7-.3-3.5-.6-.8-.3-1.3-.9-2.6-1.4-1.4-.5-1.8-.5-2-1.5-.3-1-.7-1.8-.3-3 .4-1.2-.2-1.5.7-2.2s3.3-1 4.2-.8c.9.3 4.7.7 6 .7 1.2 0 6.7.7 6.7.7.6.5 1.8 1.3 1.2 2.2zm58.2-2.5l-.5.7h.3c-.4 1.4-.6 2.8-1.5 3.9-1.4 1.9-1.8 2.6-2.9 3.3-1.5 1.1-1.7 1.4-3.9 1.5-2.1.1-2 .3-3.1-.1s-3.1-.8-2.7-1.3 1.9-.6 2.9-.8 1.6-.7 2.7-1.2c.8-.3 1.4-1.1-.6-1.4-2-.3-2.7-.1-4.2-.4s-3.3-.1-3-.7c.4-.6 1.7-1.1 1.9-1.3.2-.3-.5-.7-1.4-.8s-1.7-.1-2.4-.4c-.7-.3-1.4-.5-1-1.3.5-.8.4-1.5 1.2-1.9.8-.4 1.5-1.2 1.6-1.6.2-.4-.4-.5-.6-.8-.2-.4 0-.3.2-1.1s-.1-1.5-.5-.6c-.5.898-1.4 2.3-2.4 2s-1.4 0-1.1-.9c.2-.9.4-1-.3-1.8s-.8-1.6-.5-1.9c.3-.3.3 0-.4-.5-.7-.4-1.8 0-1.5-.7.3-.7.3-.8 1.5-1.5s1.2-.8 2.1-1.8 1.8-1.8.4-1.1-1.9 1-2.5 1.2c-.6.3-2 .9-1.6 0s.6-.9 1.3-1.7c.7-.8.7-.9 1.4-1.2.7-.2 1.1-.3 1.7-.7.6-.4 1.7-.2 1.9-1.1.2-.9.5-1.7-.5-1.4s-1.1 1.8-1.5 1.8-3.4.2-4.2.6c-.8.4-1-.1-1-.1s-.1-1.3.6-2.3c.6-1-.1-1.4.1-2.4s.5-2.2.1-1.9c-.4.3-.6.5-.7 1.4 0 .9-.2.7-.5 1.9.1 1.5.3 2.5-.4 2.5-.698 0 .302 2.8-1.8.3-2-2.5-.898-1.5-2-2.5s-1.398-1.4-2-1.3c-.7.1 1.5.9 2.102 2.1C94.3 61.8 95 61.7 95 63.4c-.1 1.7-.2 1.9-.9 3.1-.7 1.1-.898 1.2-1.3 2-.4.8-.4 1.5-.6 2.4-.3 1.3-.3 1.3-.6 2.1-.3.9-.2 2.7-1 3.2s-4.9 1.7-3.4 1.1c-.5.2-4 1.4-4.7 1-.8-.5-.5-1.1-.7-2.5-.3-1.4-.8-.7-.2-2 .602-1.3.2-1.2 1.2-2.1 1-.9 1-.9 1.7-1.4.7-.5.9-1 .1-.9-.8.2-.898.302-2.3 1 0 0 .5-1.198.8-1.5.3-.3 1.9-1.6 2.8-1.4s1.802-.2 2.4.6c.5.8.2 1.4.3 2.102.102.7.2 1.3.3 2 .1.7.1 4.1.2 3.6.2-.6.602-4.2.5-5-.1-.8.5-1.2 0-2.4-.5-1.1-.5-1.6-1.398-1.9C87.3 66.2 86 66.5 85 66.1s-1.7-.2-1.5-1.3c.3-1.2.4-2 .8-2.3s1.5-.4 1.3-1.2c-.3-.8-1.7-1-1.898-2.3C83.5 57.6 82 56.7 82.6 55.9c.6-.3 1.2-.5 2-.7l1.7-.4c3-.8 6.2-1.5 9.4-2.2 2-.4 3.8-.6 5.9-.7.5 0 1.1-.1 1.7-.3 1.3-.3 3-.6 3.8 0l.3-.3c.3.4 1 1.4 1.3 1.9l-.1.1c.5.6.7 1.3.898 2.1.2.5.3 1 .5 1.5.6 1.2 1.1 2.2 1.8 3.3 1.1 1.9 2.5 3.5 3.8 5 1.102 1.2 2.2 2.5 3.102 3.9.4.6.8 1.2 1.1 1.8.6.9 1.1 1.9 1.8 2.8.5.6 1 1.2 1.6 1.8.1.5.2 1 .3 1.6-.2.8-.3 1.8-.6 2.8zM98.1 51.1c.6-.1 1.4-.2 2.3-.2l-2.3.2zm23.8 21.3c.1 0 .1.1.2.1.075.15.15.254.225.375-.173-.06-.338-.3-.425-.475zm5.7 4.4c-1.4-.8-2.1-2.2-2.6-2.5-.5-.2-13.2-16-15.2-21.6-.5-1.4-1.8-2.9-4.2-2.7-3.3.2-9.7.5-13.7 1.6-4.1 1.1-4.9 1.5-6.9 1.8-2.1.3-5.798-.3-8.398-.2-.9 0-1.8-.5-2.9.2-.102-.2-.302-.4-.402-.5-.4-.9-.6-.6.1-1.6.8-1 .8-3.5.5-5.4-.2-1-.7-2.1-1.3-3.1-.6-1.6-1.9-3.3-3-4.3-.1-.2-.1-.4-.1-.6 0-1.1-.6-1.6-1.1-2.5-1.9-2.8-3.1-1.7-4.4-1.7-2.7-.1-6.6.5-8.7.2-2.1-.3-3-.7-7.2-1.9-3.8-1.1-9.6-1.4-13.2-1.6-.7-.1-1.3-.1-1.9-.1-.1 0-.2 0-.3.1h-.1c-1.7.3-2.7 1.6-3.1 2.8-2 5.8-15.2 22.1-15.8 22.4-.5.3-1.3 1.7-2.7 2.6-.4.3-2.1.8-4.2 1.5C11 29.4 37.2 6 68.7 6c34.6 0 62.7 28.1 62.7 62.7 0 3.2-.2 6.3-.7 9.3-1.6-.5-2.8-1-3.1-1.2zM53.19 58.92c-.052-.026-.137-.063-.29-.12.05.025.15.067.29.12z"/></svg>